<?xml version="1.0" encoding="iso-8859-1"?>
<!-- Generator: Adobe Illustrator 19.0.0, SVG Export Plug-In . SVG Version: 6.00 Build 0)  -->
<svg version="1.1" id="Capa_1" xmlns="http://www.w3.org/2000/svg" xmlns:xlink="http://www.w3.org/1999/xlink" x="0px" y="0px"
	 viewBox="0 0 463.869 463.869" style="enable-background:new 0 0 463.869 463.869;" xml:space="preserve">
<g>
	<g>
		<path fill="#a63519" d="M118.99,292.725c-12.191-34.296-12.602-71.677-1.168-106.232c0.658-2.476,0.125-5.116-1.44-7.144
			c-1.616-2.096-4.09-3.354-6.736-3.424c-0.672-0.048-1.352-0.088-2.04-0.088c-55.215,0.062-99.956,44.817-100,100.032v88
			c0.063,50.368,37.556,92.837,87.528,99.144c0.332,0.041,0.666,0.063,1,0.064c3.414-0.002,6.45-2.171,7.56-5.4l16-46.552
			C132.845,372.712,132.597,330.978,118.99,292.725z M111.662,375.869H87.606v16h21.056c-1.16,4.736-2.504,9.424-4.096,14.056
			l-13.808,40.168c-39.05-8.017-67.098-42.36-67.152-82.224v-88c0.053-43.209,32.833-79.351,75.832-83.608
			c-5.417,20.74-7.081,42.282-4.912,63.608h-22.92v16h25.168c1.711,8.927,4.102,17.71,7.152,26.272
			c3.409,9.652,5.895,19.606,7.424,29.728H87.606v16h25.384C113.596,354.553,113.151,365.271,111.662,375.869z"/>
	</g>
</g>
<g>
	<g>
		<path fill="#a63519" d="M134.454,176.005h-0.224c-3.445-0.001-6.503,2.204-7.592,5.472c-12.551,37.95-12.098,79,1.288,116.664
			c12.383,34.824,12.609,72.815,0.64,107.784l-16,46.552c-1.436,4.179,0.788,8.73,4.966,10.165c0.517,0.178,1.051,0.302,1.594,0.371
			c4.138,0.549,8.306,0.835,12.48,0.856c55.203-0.062,99.938-44.797,100-100v-88C231.855,221.664,188.644,177.247,134.454,176.005z
			 M215.606,363.869c0.001,46.392-37.606,84.001-83.998,84.002c-0.179,0-0.358-0.001-0.538-0.002l12.624-36.744
			c9.113-26.752,11.777-55.279,7.776-83.256h24.136v-16h-27.128c-1.467-6.469-3.299-12.85-5.488-19.112
			c-7.81-22.072-10.784-45.566-8.72-68.888h17.336v-16h-15.2c0.968-5.208,2.104-10.4,3.592-15.496
			c43.014,4.07,75.813,40.291,75.608,83.496V363.869z"/>
	</g>
</g>
<g>
	<g>
		<path fill="#a63519" d="M429.686,87.637l-55.424-57.928c-36.718-38.135-97.237-39.769-135.96-3.672c-1.36,1.272-2.608,2.608-3.864,3.952
			l-0.68,0.744c-3.022,3.223-2.859,8.286,0.365,11.308c0.603,0.565,1.289,1.033,2.035,1.388h0.04l31.784,14.952
			c31.82,14.91,56.618,41.58,69.176,74.4c13.081,33.981,37.896,62.155,69.952,79.424l15.088,8.128
			c3.263,1.756,7.305,1.041,9.768-1.728C465.217,180.938,464.228,124.123,429.686,87.637z M423.998,203.133l-9.304-5
			c-16.993-9.19-31.838-21.886-43.552-37.248l33.464-26.768l-10-12.496l-32.48,25.992c-3.913-6.554-7.266-13.426-10.024-20.544
			c-8.262-21.448-21.288-40.739-38.096-56.416l12.232-18.344l-13.312-8.88l-11.2,16.8c-8.389-6.35-17.41-11.819-26.92-16.32
			l-21.232-9.992c32.653-26.35,80.03-23.374,109.128,6.856l55.416,57.936C445.292,127.42,447.778,171.552,423.998,203.133z"/>
	</g>
</g>
<g>
	<g>
		<path fill="#a63519" d="M411.035,227.359c-0.463-0.411-0.973-0.766-1.518-1.059l-15.088-8.12c-28.674-15.473-50.863-40.698-62.552-71.112
			c-14.035-36.67-41.747-66.466-77.304-83.12l-31.768-14.952c-3.145-1.479-6.886-0.758-9.256,1.784
			c-34.162,36.936-34.422,93.857-0.6,131.104l54.2,59.152c17.757,19.513,42.774,30.84,69.152,31.312h2.16
			c25.623,0.079,50.208-10.116,68.256-28.304l1.256-1.248c1.04-1.04,1.992-2.128,2.944-3.2l0.8-0.944
			C414.648,235.346,414.342,230.29,411.035,227.359z M336.686,256.325c-22.009-0.393-42.882-9.845-57.696-26.128l-54.256-59.128
			c-26.734-29.45-28.124-73.955-3.28-105.016l21.6,10.176l-10.136,15.2l13.312,8.88l11.2-16.752
			c13.083,7.478,24.826,17.087,34.744,28.432l-18.224,18.224l11.312,11.312l16.8-16.8c6.046,8.75,11.048,18.177,14.904,28.088
			c8.259,21.417,21.249,40.691,38,56.384l-16.992,16.992l11.312,11.312l18.008-18.008c6.2,4.747,12.758,9.008,19.616,12.744
			l5.776,3.112C377.492,249.413,357.381,256.947,336.686,256.325z"/>
	</g>
</g>
<g>
	<g>
		<rect fill="#a63519" x="39.606" y="287.869" width="16" height="16"/>
	</g>
</g>
<g>
	<g>
		<rect fill="#a63519" x="151.606" y="255.869" width="24" height="16"/>
	</g>
</g>
<g>
	<g>
		<rect fill="#a63519" x="175.606" y="383.869" width="16" height="16"/>
	</g>
</g>
<g>
	<g>
		<rect fill="#a63519" x="340.298" y="55.87" transform="matrix(0.7071 -0.7071 0.7071 0.7071 57.8213 267.3325)" width="22.624" height="16"/>
	</g>
</g>
<g>
	<g>
		<rect fill="#a63519" x="292.299" y="191.866" transform="matrix(0.7071 -0.7071 0.7071 0.7071 -52.4009 273.2249)" width="22.624" height="16"/>
	</g>
</g>
<g>
</g>
<g>
</g>
<g>
</g>
<g>
</g>
<g>
</g>
<g>
</g>
<g>
</g>
<g>
</g>
<g>
</g>
<g>
</g>
<g>
</g>
<g>
</g>
<g>
</g>
<g>
</g>
<g>
</g>
</svg>
