<?xml version="1.0" encoding="iso-8859-1"?>
<!-- Generator: Adobe Illustrator 19.0.0, SVG Export Plug-In . SVG Version: 6.00 Build 0)  -->
<svg version="1.1" id="Capa_1" xmlns="http://www.w3.org/2000/svg" xmlns:xlink="http://www.w3.org/1999/xlink" x="0px" y="0px"
	 viewBox="0 0 464 464" style="enable-background:new 0 0 464 464;" xml:space="preserve">
<g>
	<g>
		<path fill="#a63519" d="M289.688,322l-0.024-0.056c-12.793-14.184-30.728-22.661-49.808-23.544l-40-1.976
			c-39.716-1.957-73.499,28.654-75.456,68.37c-0.246,4.985,0.028,9.982,0.816,14.91c0.688,4.364,4.784,7.345,9.148,6.656
			c0.375-0.059,0.745-0.145,1.108-0.256l40.8-12.592c21.446-6.67,44.442-6.458,65.76,0.608l54.144,17.824
			c0.808,0.268,1.653,0.403,2.504,0.4c3.744,0.001,6.988-2.595,7.808-6.248C311.76,363.268,305.479,339.307,289.688,322z
			 M292.28,373.08l-0.048-0.04c0,0.224,0,0.464-0.04,0.688L268,365.76V344h-16v16.496l-4.96-1.6
			c-8.778-2.864-17.847-4.742-27.04-5.6V336h-16v16.8c-11.005,0.36-21.913,2.178-32.44,5.408l-31.2,9.648
			c0-0.757,0.024-1.517,0.072-2.28c1.531-30.884,27.804-54.682,58.688-53.16l40,1.976
			C270.004,315.923,293.802,342.196,292.28,373.08z"/>
	</g>
</g>
<g>
	<g>
		<path fill="#a63519" d="M301.184,398.4l-54.144-17.824c-24.472-8.096-50.864-8.336-75.48-0.688l-40.76,12.6c-3.804,1.173-6.167,4.964-5.544,8.896
			c5.467,33.56,33.589,58.77,67.544,60.552l39.952,1.976c1.216,0.056,2.4,0.088,3.624,0.088
			c33.679,0.03,62.848-23.365,70.128-56.248C307.405,403.73,305.102,399.681,301.184,398.4z M233.536,447.928v-0.008l-39.936-1.968
			c-23.855-1.25-44.32-17.429-51.04-40.352l21.44-6.632v15.384h16v-20.176c7.836-2.13,15.886-3.37,24-3.696V424h16v-32.96
			c7.492,0.811,14.878,2.401,22.04,4.744l46.816,15.416C280.543,434.31,258.061,449.236,233.536,447.928z"/>
	</g>
</g>
<g>
	<g>
		<rect fill="#a63519" x="172" y="328" width="16" height="16"/>
	</g>
</g>
<g>
	<g>
		<rect fill="#a63519" x="236" y="416" width="16" height="16"/>
	</g>
</g>
<g>
	<g>
		<path fill="#a63519" d="M405.48,96.144l-44.36-8.32c-42.626-8.024-83.685,20.027-91.709,62.652c-0.831,4.416-1.282,8.895-1.347,13.388
			c-20.253,12.665-36.827,30.425-48.064,51.504v-47.456c0.069-30.806-11.398-60.522-32.144-83.296C186.4,35.4,153.312,0,108,0H60
			c-4.418,0-8,3.582-8,8c0.057,48.577,39.423,87.943,88,88h36.456c17.764,19.736,27.578,45.359,27.544,71.912V280
			c0,4.418,3.582,8,8,8s8-3.582,8-8c-0.137-42.384,21.974-81.732,58.248-103.656l45.376,5.672
			c43.088,5.386,82.383-25.177,87.769-68.265C411.797,110.516,412,107.26,412,104C411.997,100.155,409.259,96.855,405.48,96.144z
			 M140,80c-33.719-0.05-62.899-23.467-70.248-56.376l83.936,53.008c1.6,1.032,3.088,2.256,4.656,3.368H140z M169.912,68.424
			c-2.488-1.84-5.032-3.624-7.68-5.296L87.656,16H108c31.544,0,55.064,20.8,61.912,52.4V68.424z M306.624,116.904
			c14.338-11.899,33.23-16.799,51.544-13.368l20.992,3.944l-94.288,47.144C287.358,139.847,295.079,126.458,306.624,116.904z
			 M374.824,150.944c-13.476,11.874-31.392,17.407-49.216,15.2l-22.4-2.808l91.2-45.6
			C391.535,130.589,384.682,142.21,374.824,150.944z"/>
	</g>
</g>
<g>
</g>
<g>
</g>
<g>
</g>
<g>
</g>
<g>
</g>
<g>
</g>
<g>
</g>
<g>
</g>
<g>
</g>
<g>
</g>
<g>
</g>
<g>
</g>
<g>
</g>
<g>
</g>
<g>
</g>
</svg>
