<?xml version="1.0" encoding="iso-8859-1"?>
<!-- Generator: Adobe Illustrator 19.0.0, SVG Export Plug-In . SVG Version: 6.00 Build 0)  -->
<svg version="1.1" id="Capa_1" xmlns="http://www.w3.org/2000/svg" xmlns:xlink="http://www.w3.org/1999/xlink" x="0px" y="0px"
	 viewBox="0 0 480 480" style="enable-background:new 0 0 480 480;" xml:space="preserve">
<g>
	<g>
		<path fill="#a63519" d="M397.056,41.936l0.072-0.088l-48-40C347.686,0.654,345.872,0.001,344,0H136c-1.872,0.001-3.686,0.654-5.128,1.848l-48,40
			l0.072,0.088C81.102,43.413,80.021,45.639,80,48v48c0,4.418,3.582,8,8,8h8.656l6.808,80H96c-4.418,0-8,3.581-8.001,7.999
			c0,0.294,0.016,0.588,0.049,0.881l16,144c0.449,4.053,3.874,7.12,7.952,7.12h5.08L128,472.68c0.354,4.151,3.834,7.335,8,7.32h208
			c4.166,0.015,7.646-3.169,8-7.32L362.92,344H368c4.078,0,7.503-3.067,7.952-7.12l16-144c0.486-4.391-2.68-8.345-7.071-8.831
			C384.588,184.016,384.294,184,384,184h-7.464l6.808-80H392c4.418,0,8-3.582,8-8V48C399.979,45.639,398.898,43.413,397.056,41.936z
			 M138.896,16h202.208l28.8,24h-259.8L138.896,16z M119.2,328l-14.264-128h23.496l7.112,128H119.2z M119.52,184l-6.816-80h254.592
			l-6.816,80H119.52z M335.568,200l-7.112,128h-16l7.112-128H335.568z M303.568,200l-7.112,128h-16l7.112-128H303.568z M271.544,200
			l-7.088,128H248V200H271.544z M232,200v128h-16.432l-7.112-128H232z M199.544,328h-16l-7.112-128h16L199.544,328z M167.544,328
			h-16l-7.112-128h16L167.544,328z M336.648,464H143.352l-10.224-120h213.744L336.648,464z M360.8,328h-16.344l7.112-128h23.496
			L360.8,328z M384,88H96V56h288V88z"/>
	</g>
</g>
<g>
</g>
<g>
</g>
<g>
</g>
<g>
</g>
<g>
</g>
<g>
</g>
<g>
</g>
<g>
</g>
<g>
</g>
<g>
</g>
<g>
</g>
<g>
</g>
<g>
</g>
<g>
</g>
<g>
</g>
</svg>
