<?xml version="1.0" encoding="iso-8859-1"?>
<!-- Generator: Adobe Illustrator 19.0.0, SVG Export Plug-In . SVG Version: 6.00 Build 0)  -->
<svg version="1.1" id="Capa_1" xmlns="http://www.w3.org/2000/svg" xmlns:xlink="http://www.w3.org/1999/xlink" x="0px" y="0px"
	 viewBox="0 0 473.402 473.402" style="enable-background:new 0 0 473.402 473.402;" xml:space="preserve">
<g>
	<g>
		<path d="M303.107,155.836c-0.518-0.532-1.108-0.99-1.752-1.359l-41.192-23.552l-112-64.048c-7.314-4.186-16.621-1.982-21.28,5.04
			l-5.024,7.568l-19.896-11.376C86.621,59.337,67.072,64.662,58.3,80.004c0,0,0,0.001,0,0.001l-47.712,83.312
			c-8.774,15.341-3.45,34.891,11.891,43.665c0.004,0.002,0.009,0.005,0.013,0.007l10.624,6.08L2.659,258.957
			c-4.877,7.369-2.857,17.296,4.512,22.173c0.29,0.192,0.586,0.374,0.888,0.547l137.944,78.88c7.672,4.384,17.446,1.719,21.83-5.953
			c0.176-0.309,0.342-0.623,0.498-0.943l51.2-105.208l0.032,0.04l83.392-81.344C306.121,164.067,306.189,159.002,303.107,155.836z
			 M30.427,193.101c-7.67-4.388-10.331-14.162-5.944-21.832l47.648-83.336c4.384-7.672,14.158-10.337,21.83-5.953
			c0.001,0,0.001,0.001,0.002,0.001l18.96,10.84L41.979,199.709L30.427,193.101z M153.955,346.701l-137.96-78.912l124.16-187.04
			l112,64.048L153.955,346.701z M240.147,206.093l25.936-53.296l18.096,10.272L240.147,206.093z"/>
	</g>
</g>
<g>
	<g>
		<path d="M468.406,250.277c-9.414-18.021-29.977-27.212-49.683-22.208h-0.024l-8.408-16.704c-1.985-3.947-6.794-5.538-10.741-3.553
			c-0.001,0-0.002,0.001-0.003,0.001l-185.784,93.512c-3.949,1.981-5.544,6.789-3.563,10.738c0.001,0.002,0.002,0.004,0.003,0.006
			l17.984,35.728c27.711,55.223,94.941,77.525,150.164,49.815c32.152-16.134,54.584-46.744,60.284-82.263l11.2-5.872
			C471.311,298.258,479.626,271.753,468.406,250.277z M371.403,383.197c-47.357,23.838-105.073,4.773-128.912-42.584l-14.4-28.592
			l171.504-86.32l14.4,28.584C437.771,301.649,418.716,359.32,371.403,383.197z M456.083,278.829v0.024
			c-2.194,7.096-7.13,13.022-13.712,16.464l-2.28,1.2c-0.06-17.175-4.105-34.102-11.816-49.448l-2.072-4.12
			c15.206-1.89,29.064,8.905,30.954,24.111C457.649,271.014,457.282,275.029,456.083,278.829z"/>
	</g>
</g>
<g>
	<g>
		<path d="M315.291,161.677l-3.872,15.52c13.782,3.429,22.427,17.094,19.624,31.016l-1.528,7.656l15.68,3.136l1.536-7.656
			C351.224,189.048,337.37,167.16,315.291,161.677z"/>
	</g>
</g>
<g>
	<g>
		<path d="M345.025,138.817c-0.007-0.001-0.014-0.003-0.021-0.004l-6.08-1.216l-3.168,15.712l6.072,1.224
			c14.399,2.869,23.745,16.868,20.876,31.267c-0.001,0.007-0.003,0.014-0.004,0.021l-1.184,6.048l15.68,3.136l1.224-6.072
			C383.037,165.872,368.085,143.435,345.025,138.817z"/>
	</g>
</g>
<g>
	<g>
		<rect x="297.355" y="217.469" width="16" height="16"/>
	</g>
</g>
<g>
	<g>
		<rect x="47.383" y="165.463" transform="matrix(0.5145 -0.8575 0.8575 0.5145 -91.7669 184.8475)" width="139.944" height="16"/>
	</g>
</g>
<g>
	<g>
		<path d="M403.691,276.165l-3.136-6.272l-14.32,7.152l3.144,6.272c9.808,19.817,2.811,43.844-16.104,55.296l8.24,13.712
			C407.561,336.547,417.196,303.459,403.691,276.165z"/>
	</g>
</g>
<g>
</g>
<g>
</g>
<g>
</g>
<g>
</g>
<g>
</g>
<g>
</g>
<g>
</g>
<g>
</g>
<g>
</g>
<g>
</g>
<g>
</g>
<g>
</g>
<g>
</g>
<g>
</g>
<g>
</g>
</svg>
