<?xml version="1.0" encoding="iso-8859-1"?>
<!-- Generator: Adobe Illustrator 19.0.0, SVG Export Plug-In . SVG Version: 6.00 Build 0)  -->
<svg version="1.1" id="Capa_1" xmlns="http://www.w3.org/2000/svg" xmlns:xlink="http://www.w3.org/1999/xlink" x="0px" y="0px"
	 viewBox="0 0 464.091 464.091" style="enable-background:new 0 0 464.091 464.091;" xml:space="preserve">
<g>
	<g>
		<path d="M224.082,80.045c-83.947,0-152,68.053-152,152s68.053,152,152,152s152-68.053,152-152
			C375.99,148.137,307.991,80.138,224.082,80.045z M224.082,368.045c-75.111,0-136-60.889-136-136s60.889-136,136-136
			s136,60.889,136,136C359.999,307.121,299.158,367.962,224.082,368.045z"/>
	</g>
</g>
<g>
	<g>
		<path d="M460.892,218.167c-3.112-6.409-8.289-11.585-14.697-14.697v0C430.412,80.768,318.15-5.906,195.449,9.876
			S-13.927,137.92,1.855,260.621C17.637,383.322,129.9,469.997,252.601,454.215c101.048-12.997,180.597-92.546,193.594-193.594
			C461.976,252.956,468.557,233.949,460.892,218.167z M224.082,440.045c-114.875-0.007-207.995-93.137-207.988-208.012
			c0.007-114.875,93.137-207.995,208.012-207.988c102.515,0.006,189.74,74.705,205.511,176h-24.36
			C387.585,99.974,292.134,33.176,192.062,50.849C91.991,68.523,25.193,163.974,42.866,264.045s113.124,166.869,213.196,149.196
			c76.139-13.446,135.75-73.057,149.196-149.196h24.36C414.076,365.478,326.699,440.299,224.082,440.045z M432.082,248.045H398.41
			c-4.001-0.001-7.388,2.955-7.928,6.92c-12.658,91.916-97.433,156.168-189.349,143.509
			c-91.916-12.658-156.168-97.433-143.509-189.349S155.057,52.958,246.973,65.616c74.591,10.272,133.237,68.919,143.509,143.509
			c0.54,3.965,3.927,6.921,7.928,6.92h33.672c8.837,0.009,15.993,7.179,15.984,16.016
			C448.058,240.885,440.907,248.037,432.082,248.045z"/>
	</g>
</g>
<g>
	<g>
		<path d="M320.081,216.951c-2.121,0-4.154,0.843-5.654,2.342l-90.344,90.352l-90.344-90.352c-3.125-3.124-8.19-3.123-11.314,0.002
			c-1.499,1.5-2.342,3.534-2.342,5.654c0,62.208,41.792,104,104,104s104-41.792,104-104
			C328.081,220.531,324.499,216.95,320.081,216.951z M138.186,246.373l64.472,64.472
			C169.826,304.903,144.129,279.206,138.186,246.373z M245.506,310.845l64.472-64.472
			C304.035,279.206,278.339,304.903,245.506,310.845z"/>
	</g>
</g>
<g>
	<g>
		<path d="M288.089,176.943c-1.942-0.002-3.818,0.703-5.279,1.983l-58.728,51.392l-58.728-51.392
			c-3.323-2.912-8.378-2.578-11.289,0.745c-1.28,1.461-1.984,3.337-1.983,5.279c0,43.256,26.928,88,72,88s72-44.744,72-88
			C296.086,180.531,292.508,176.946,288.089,176.943z M224.082,256.949c-28.592,0-47.8-24.36-53.904-52.544l48.632,42.56
			c3.017,2.644,7.526,2.644,10.544,0l48.632-42.56C271.882,232.589,252.674,256.949,224.082,256.949z"/>
	</g>
</g>
<g>
	<g>
		<path d="M267.065,136.468c-8.754-8.722-22.096-10.888-33.159-5.383l-9.824,4.96l-9.824-4.92
			c-14.24-7.086-31.529-1.287-38.615,12.953c-5.505,11.063-3.339,24.405,5.383,33.159l37.4,37.368c3.124,3.123,8.188,3.123,11.312,0
			l37.4-37.408C278.365,165.93,278.332,147.695,267.065,136.468z M255.826,165.885l-31.744,31.76l-31.744-31.76
			c-3.893-3.894-4.86-9.841-2.4-14.768v0c3.163-6.314,10.841-8.873,17.16-5.72l13.408,6.704c2.251,1.125,4.901,1.125,7.152,0
			l13.408-6.704c6.338-3.132,14.014-0.534,17.146,5.804C260.635,156.103,259.676,162.003,255.826,165.885z"/>
	</g>
</g>
<g>
</g>
<g>
</g>
<g>
</g>
<g>
</g>
<g>
</g>
<g>
</g>
<g>
</g>
<g>
</g>
<g>
</g>
<g>
</g>
<g>
</g>
<g>
</g>
<g>
</g>
<g>
</g>
<g>
</g>
</svg>
