<?xml version="1.0" encoding="iso-8859-1"?>
<!-- Generator: Adobe Illustrator 19.0.0, SVG Export Plug-In . SVG Version: 6.00 Build 0)  -->
<svg version="1.1" id="Capa_1" xmlns="http://www.w3.org/2000/svg" xmlns:xlink="http://www.w3.org/1999/xlink" x="0px" y="0px"
	 viewBox="0 0 480 480" style="enable-background:new 0 0 480 480;" xml:space="preserve">
<g>
	<g>
		<path fill="#88a896" d="M302.057,238.664l-4.112,15.472c2.031,0.522,4.034,1.15,6,1.88c-22.108,6.111-45.021,8.803-67.944,7.984
			c-22.923,0.814-45.837-1.884-67.944-8c1.966-0.73,3.969-1.358,6-1.88l-4.112-15.472C160.521,241.168,148,245.696,148,256
			c0,22.264,67.352,24,88,24s88-1.736,88-24C324,245.696,311.481,241.168,302.057,238.664z"/>
	</g>
</g>
<g>
	<g>
		<path fill="#88a896" d="M108,248h16c0-11.328,23.952-24,56-24v-16C138.953,208,108,225.192,108,248z"/>
	</g>
</g>
<g>
	<g>
		<path fill="#88a896" d="M292,208v16c32.048,0,56,12.672,56,24h16C364,225.192,333.049,208,292,208z"/>
	</g>
</g>
<g>
	<g>
		<path fill="#a63519" d="M420,280h-8v-56c0-43.248-60.152-78.976-144-86.488V8c0-4.418-3.582-8-8-8h-48c-4.418,0-8,3.582-8,8v129.6
			c-22.793,1.867-45.283,6.432-67,13.6c-17.888,6.64-35.195,14.75-51.744,24.248L8.224,216.944
			c-3.847,2.006-5.339,6.751-3.333,10.598c0.002,0.003,0.003,0.006,0.005,0.01H4.841L84,385.888V472c0,4.418,3.582,8,8,8h312
			c4.418,0,8-3.582,8-8V296h8c22.08,0.026,39.974,17.92,40,40v144h16V336C475.965,305.087,450.914,280.035,420,280z M92.873,189.6
			c15.774-9.087,32.276-16.847,49.336-23.2c20.03-6.654,40.767-10.95,61.792-12.8V216c-8.837,0-16,7.163-16,16v24h16v-24
			c8.837,0,16-7.163,16-16V16h32v200c0,8.837,7.163,16,16,16v24h16v-24c0-8.837-7.163-16-16-16v-62.4
			c72.416,6.872,128,37.032,128,70.4c0,39.032-73.272,72-160,72c-6.4,0-12.896-0.176-19.2-0.528
			c-23.318-1.135-46.416-5.059-68.8-11.688c-19.336-6.614-37.951-15.173-55.56-25.544L28.873,224L92.873,189.6z M396,464H100v-80
			c0.001-1.241-0.286-2.465-0.84-3.576L30.464,243.032L84.8,272.296c18.555,10.887,38.167,19.861,58.536,26.784
			c23.604,7.003,47.961,11.152,72.552,12.36c6.624,0.376,13.392,0.56,20.12,0.56c72,0,132.488-20.632,160-50.928L396,464z"/>
	</g>
</g>
<g>
</g>
<g>
</g>
<g>
</g>
<g>
</g>
<g>
</g>
<g>
</g>
<g>
</g>
<g>
</g>
<g>
</g>
<g>
</g>
<g>
</g>
<g>
</g>
<g>
</g>
<g>
</g>
<g>
</g>
</svg>
