<?xml version="1.0" encoding="iso-8859-1"?>
<!-- Generator: Adobe Illustrator 19.0.0, SVG Export Plug-In . SVG Version: 6.00 Build 0)  -->
<svg version="1.1" id="Capa_1" xmlns="http://www.w3.org/2000/svg" xmlns:xlink="http://www.w3.org/1999/xlink" x="0px" y="0px"
	 viewBox="0 0 475.083 475.083" style="enable-background:new 0 0 475.083 475.083;" xml:space="preserve">
<g>
	<g>
		<path fill="#a63519" d="M390.918,219.083h-33.376v-16c26.499-0.026,47.974-21.501,48-48v-22.792l22.096-71.8
			c5.196-16.892-4.286-34.798-21.178-39.994c-3.05-0.938-6.223-1.415-9.414-1.414h-153.84c-2.485-0.004-4.935-0.581-7.16-1.688
			l-31.304-15.68c-7.891-3.977-17.512-0.803-21.488,7.088c-1.129,2.24-1.715,4.715-1.712,7.224v27.056c0,17.673,14.327,32,32,32v80
			c0.026,26.499,21.501,47.974,48,48v16h-40.408c-12.371,0.003-23.631,7.137-28.92,18.32l-24.8,36.648
			c-2.374,3.524-7.088,4.578-10.736,2.4l-27.008-16.2c-1.24-0.767-2.67-1.171-4.128-1.168h-16v-48c0-4.418-3.582-8-8-8h-48
			c-4.418,0-8,3.582-8,8v32h-8c-8.837,0-16,7.163-16,16v32c0,8.837,7.163,16,16,16h14.696l69.344,23.112l32.176,26.816
			c10.184,8.483,25.318,7.104,33.801-3.08c0.899-1.08,1.702-2.236,2.399-3.456l7.584-13.272v129.88c0,4.418,3.582,8,8,8h240
			c4.418,0,8-3.582,8-8V281.715C453.542,247.127,425.505,219.087,390.918,219.083z M53.542,291.083h-16v-32h16
			c8.837,0,16,7.163,16,16S62.378,291.083,53.542,291.083z M61.542,244.219v-25.136h32v64h-9.136c0.72-2.607,1.102-5.296,1.136-8
			C85.487,260.536,75.627,247.856,61.542,244.219z M117.542,311.979l-38.696-12.896h22.696c4.418,0,8-3.582,8-8v-16h8V311.979z
			 M213.542,59.083c-8.837,0-16-7.163-16-16V16.027l31.352,15.68c4.447,2.213,9.345,3.369,14.312,3.376h153.84
			c8.837-0.002,16.001,7.16,16.003,15.997c0,1.596-0.238,3.182-0.707,4.707l-13.704,44.536
			c-11.916-25.163-37.255-41.216-65.096-41.24H213.542z M229.542,155.083v-80h104c30.913,0.035,55.965,25.087,56,56v24
			c0,17.673-14.327,32-32,32h-96C243.868,187.083,229.542,172.756,229.542,155.083z M277.542,219.083v-16h64v16H277.542z
			 M341.542,235.083l-8,10.664l-8-10.664H341.542z M293.542,235.083l-8,10.664l-8-10.664H293.542z M263.773,243.403l15.368,20.48
			c2.908,3.535,8.131,4.042,11.666,1.134c0.414-0.34,0.794-0.72,1.134-1.134l17.6-23.464l17.6,23.464
			c2.908,3.535,8.131,4.042,11.666,1.134c0.414-0.34,0.794-0.72,1.134-1.134l15.368-20.48l30.984,79.68H232.789L263.773,243.403z
			 M205.569,299.055c-2.879-0.01-5.542,1.528-6.972,4.028l-22.536,39.424c-2.193,3.836-7.08,5.167-10.916,2.974
			c-0.402-0.23-0.784-0.494-1.14-0.791l-30.464-25.352v-38.128l14.888,8.936c10.932,6.563,25.087,3.433,32.232-7.128l25.168-37.2
			c0.265-0.39,0.495-0.802,0.688-1.232c2.567-5.777,8.294-9.502,14.616-9.504h28.72l-36.312,93.368v-21.368
			C213.557,302.665,209.987,299.071,205.569,299.055z M405.542,459.083h-192v-86.504l13.024-33.496h165.952l13.024,33.496V459.083z
			 M437.542,459.083h-16v-152h-16v21.368l-36.312-93.368h21.688c12.372-0.034,24.244,4.883,32.968,13.656v0
			c8.773,8.727,13.691,20.601,13.656,32.976V459.083z"/>
	</g>
</g>
<g>
	<g>
		<rect fill="#a63519" x="61.542" y="139.083" width="16" height="48"/>
	</g>
</g>
<g>
	<g>
		<rect fill="#a63519" x="93.542" y="123.083" width="16" height="40"/>
	</g>
</g>
<g>
	<g>
		<rect fill="#a63519" x="245.542" y="107.083" width="16" height="16"/>
	</g>
</g>
<g>
	<g>
		<rect fill="#a63519" x="317.542" y="107.083" width="16" height="16"/>
	</g>
</g>
<g>
	<g>
		<path fill="#a63519" d="M311.478,139.323c-0.633-0.16-1.283-0.241-1.936-0.24h-24c-0.653-0.001-1.303,0.08-1.936,0.24l-32,8l3.872,15.52
			l31.048-7.76h22.032l31.048,7.76l3.872-15.52L311.478,139.323z"/>
	</g>
</g>
<g>
	<g>
		<rect fill="#a63519" x="285.542" y="163.083" width="24" height="16"/>
	</g>
</g>
<g>
</g>
<g>
</g>
<g>
</g>
<g>
</g>
<g>
</g>
<g>
</g>
<g>
</g>
<g>
</g>
<g>
</g>
<g>
</g>
<g>
</g>
<g>
</g>
<g>
</g>
<g>
</g>
<g>
</g>
</svg>
