<?xml version="1.0" encoding="iso-8859-1"?>
<!-- Generator: Adobe Illustrator 19.0.0, SVG Export Plug-In . SVG Version: 6.00 Build 0)  -->
<svg version="1.1" id="Capa_1" xmlns="http://www.w3.org/2000/svg" xmlns:xlink="http://www.w3.org/1999/xlink" x="0px" y="0px"
	 viewBox="0 0 480 480" style="enable-background:new 0 0 480 480;" xml:space="preserve">
<g>
	<g>
		<path d="M448,16H32C14.327,16,0,30.327,0,48v384c0,17.673,14.327,32,32,32h416c17.673,0,32-14.327,32-32V48
			C480,30.327,465.673,16,448,16z M464,432c0,8.837-7.163,16-16,16H32c-8.837,0-16-7.163-16-16V48c0-8.837,7.163-16,16-16h416
			c8.837,0,16,7.163,16,16V432z"/>
	</g>
</g>
<g>
	<g>
		<path d="M360,160c0-61.856-50.144-112-112-112S136,98.144,136,160s50.144,112,112,112c21.818,0.003,43.153-6.434,61.328-18.504
			c12.327,5.969,27.16,0.815,33.129-11.512c3.35-6.919,3.303-15.001-0.129-21.88C353.868,202.182,360.003,181.316,360,160z
			 M326.344,237.376c-3.55,3.391-9.138,3.391-12.688,0L298.4,222.08c4.647-3.787,8.857-8.08,12.552-12.8l15.432,15.432
			C329.845,228.23,329.827,233.88,326.344,237.376z M248,224c-35.346,0-64-28.654-64-64c0-35.346,28.654-64,64-64
			c35.346,0,64,28.654,64,64C311.96,195.33,283.33,223.96,248,224z M331.472,207.2l-11.824-11.824
			c19.599-39.672,3.327-87.72-36.345-107.32c-39.672-19.599-87.72-3.327-107.32,36.345s-3.327,87.72,36.345,107.32
			c22.855,11.291,49.719,11.032,72.352-0.697l11.72,11.728C281.747,251.43,265.03,256.006,248,256
			c-52.996-0.057-95.943-43.004-96-96c-0.12-53.019,42.763-96.097,95.783-96.217c53.019-0.12,96.097,42.763,96.217,95.783
			C344.037,176.263,339.719,192.682,331.472,207.2z"/>
	</g>
</g>
<g>
	<g>
		<path d="M219.2,121.6l9.6,12.8c5.528-4.176,12.272-6.424,19.2-6.4v-16C237.61,111.973,227.496,115.345,219.2,121.6z"/>
	</g>
</g>
<g>
	<g>
		<path d="M216,160h-16c0.026,26.499,21.501,47.974,48,48v-16C230.327,192,216,177.673,216,160z"/>
	</g>
</g>
<g>
	<g>
		<path d="M247,375.843c-1.013-2.703-2.738-5.081-4.992-6.883c-1.01-0.809-2.202-1.361-3.472-1.608l-26.224-5.104l0.072-0.168
			c3.333-7.785,0.023-16.82-7.552-20.608l-21.392-10.696c1.112-2.917,0.414-6.215-1.784-8.432l-40-40
			c-2.525-2.523-6.415-3.068-9.536-1.336l-0.904,0.496l-9.16-16c-2.704-4.718-7.625-7.733-13.056-8l-19.2-24
			c-5.518-6.902-15.586-8.024-22.488-2.505c-3.18,2.543-5.272,6.203-5.848,10.234L56.936,272.8
			c-5.584,4.589-7.38,12.362-4.376,18.936l12.136,26.696l-4.576,2.544c-2.551,1.415-4.13,4.107-4.12,7.024
			c0.049,44.163,35.837,79.951,80,80h8c3.162,0,6.028-1.862,7.312-4.752l0.488-1.096l21.44,9.744
			c3.916,1.797,8.394,1.927,12.408,0.36c3.591-1.4,6.545-4.066,8.304-7.496l42.344-7.952c0.454-0.087,0.901-0.21,1.336-0.368
			C245.907,393.339,250.101,384.117,247,375.843z M77.304,243.44l14.424,18.032l-17.72,5.064L77.304,243.44z M108.168,273.416
			l9.064,15.864l-38.504,21.392l-11.6-25.52L108.168,273.416z M138.808,392H136c-33.539-0.04-61.374-25.935-63.832-59.384
			l62.44-34.696l31.856,31.856L138.808,392z M179.864,397.336l-21.6-9.808l18.704-42.08l20.68,10.336L179.864,397.336z
			 M201.688,387.032l4.176-9.744l23.408,4.552L201.688,387.032z"/>
	</g>
</g>
<g>
	<g>
		<path d="M416,48h-56v16h56c8.837,0,16,7.163,16,16v56h16V80C448,62.327,433.673,48,416,48z"/>
	</g>
</g>
<g>
	<g>
		<path d="M64,416c-8.837,0-16-7.163-16-16v-56H32v56c0,17.673,14.327,32,32,32h56v-16H64z"/>
	</g>
</g>
<g>
	<g>
		<path d="M440.24,371.784c-5.476-19.183-8.249-39.035-8.24-58.984v-48.92c15.722-12.55,24.614-31.773,24-51.88
			c0-33.088-21.528-60-48-60s-48,26.912-48,60c-0.614,20.107,8.278,39.33,24,51.88v48.92c-0.001,19.947-2.782,39.797-8.264,58.976
			l-3.76,13.152c-5.607,19.604,5.74,40.042,25.345,45.649c3.304,0.945,6.723,1.424,10.159,1.423h1.04
			c20.39-0.012,36.91-16.551,36.899-36.941c-0.002-3.421-0.479-6.825-1.419-10.115L440.24,371.784z M376,212
			c0-24.256,14.352-44,32-44s32,19.744,32,44s-14.352,44-32,44S376,236.256,376,212z M414.279,415.193
			c-1.873,0.536-3.811,0.807-5.759,0.807h-1.04c-11.549,0.004-20.915-9.356-20.919-20.905c-0.001-1.948,0.271-3.886,0.807-5.759
			l3.76-13.152c5.889-20.613,8.875-41.946,8.872-63.384v-41.704c5.265,1.205,10.735,1.205,16,0V312.8
			c-0.004,21.435,2.983,42.766,8.872,63.376l3.76,13.16C431.809,400.44,425.383,412.017,414.279,415.193z"/>
	</g>
</g>
<g>
</g>
<g>
</g>
<g>
</g>
<g>
</g>
<g>
</g>
<g>
</g>
<g>
</g>
<g>
</g>
<g>
</g>
<g>
</g>
<g>
</g>
<g>
</g>
<g>
</g>
<g>
</g>
<g>
</g>
</svg>
