<?xml version="1.0" encoding="iso-8859-1"?>
<!-- Generator: Adobe Illustrator 19.0.0, SVG Export Plug-In . SVG Version: 6.00 Build 0)  -->
<svg version="1.1" id="Capa_1" xmlns="http://www.w3.org/2000/svg" xmlns:xlink="http://www.w3.org/1999/xlink" x="0px" y="0px"
	 viewBox="0 0 480 480" style="enable-background:new 0 0 480 480;" xml:space="preserve">
<g>
	<g>
		<path d="M448,72H311.2L304,7.12c-0.451-4.071-3.904-7.145-8-7.12h-48c-4.078,0-7.503,3.067-7.952,7.12l-7.2,64.88H215.2L208,7.12
			c-0.451-4.071-3.904-7.145-8-7.12h-48c-4.078,0-7.503,3.067-7.952,7.12l-7.2,64.88H119.2L112,7.12
			c-0.451-4.071-3.904-7.145-8-7.12H56c-4.078,0-7.503,3.067-7.952,7.12L40.84,72H32C14.327,72,0,86.327,0,104v312
			c0,17.673,14.327,32,32,32h8v8c0,13.255,10.745,24,24,24h80c13.255,0,24-10.745,24-24v-8h144v8c0,13.255,10.745,24,24,24h80
			c13.255,0,24-10.745,24-24v-8h8c17.673,0,32-14.327,32-32V104C480,86.327,465.673,72,448,72z M255.2,16h33.6l6.224,56h-46.088
			L255.2,16z M159.2,16h33.68l6.224,56h-46.168L159.2,16z M63.2,16h33.68l6.224,56H56.936L63.2,16z M152,456c0,4.418-3.582,8-8,8H64
			c-4.418,0-8-3.582-8-8v-8h96V456z M424,456c0,4.418-3.582,8-8,8h-80c-4.418,0-8-3.582-8-8v-8h96V456z M464,416
			c0,8.837-7.163,16-16,16H32c-8.837,0-16-7.163-16-16v-16h448V416z M464,384H16v-8h448V384z M112,320v-8h80v8
			c0,22.091-17.909,40-40,40S112,342.092,112,320z M464,360H191.12c10.794-10.509,16.882-24.935,16.88-40v-16c0-4.418-3.582-8-8-8
			h-96c-4.418,0-8,3.582-8,8v16c-0.002,15.065,6.086,29.491,16.88,40H16V200h88v16h-8c-4.418,0-8,3.582-8,8v32c0,4.418,3.582,8,8,8
			h112c4.418,0,8-3.582,8-8v-32c0-4.418-3.582-8-8-8h-8v-16h96v24c0,4.418,3.582,8,8,8h24v32c0.001,3.908,2.826,7.243,6.68,7.888
			l43.76,7.296l30.248,68.064l14.624-6.496l-32-72c-1.092-2.455-3.342-4.198-5.992-4.64L344,257.224V232h24c4.418,0,8-3.582,8-8v-24
			h88V360z M200,232v16h-96v-16h8H200z M120,216v-16h64v16H120z M312,216v-16h48v16H312z M464,184H16v-80c0-8.837,7.163-16,16-16
			h416c8.837,0,16,7.163,16,16V184z"/>
	</g>
</g>
<g>
	<g>
		<path d="M152,104c-17.673,0-32,14.327-32,32s14.327,32,32,32s32-14.327,32-32S169.673,104,152,104z M152,152
			c-8.837,0-16-7.163-16-16s7.163-16,16-16s16,7.163,16,16S160.837,152,152,152z"/>
	</g>
</g>
<g>
	<g>
		<rect x="80" y="104" width="16" height="16"/>
	</g>
</g>
<g>
	<g>
		<rect x="80" y="128" width="16" height="16"/>
	</g>
</g>
<g>
	<g>
		<rect x="80" y="152" width="16" height="16"/>
	</g>
</g>
<g>
	<g>
		<path d="M400,104c-17.673,0-32,14.327-32,32s14.327,32,32,32c17.673,0,32-14.327,32-32S417.673,104,400,104z M400,152
			c-8.837,0-16-7.163-16-16s7.163-16,16-16s16,7.163,16,16S408.837,152,400,152z"/>
	</g>
</g>
<g>
	<g>
		<rect x="312" y="112" width="32" height="16"/>
	</g>
</g>
<g>
	<g>
		<rect x="312" y="144" width="32" height="16"/>
	</g>
</g>
<g>
</g>
<g>
</g>
<g>
</g>
<g>
</g>
<g>
</g>
<g>
</g>
<g>
</g>
<g>
</g>
<g>
</g>
<g>
</g>
<g>
</g>
<g>
</g>
<g>
</g>
<g>
</g>
<g>
</g>
</svg>
