<?xml version="1.0" encoding="iso-8859-1"?>
<!-- Generator: Adobe Illustrator 19.0.0, SVG Export Plug-In . SVG Version: 6.00 Build 0)  -->
<svg version="1.1" id="Capa_1" xmlns="http://www.w3.org/2000/svg" xmlns:xlink="http://www.w3.org/1999/xlink" x="0px" y="0px"
	 viewBox="0 0 480 480" style="enable-background:new 0 0 480 480;" xml:space="preserve">
<g>
	<g>
		<path d="M376,0H104C90.745,0,80,10.745,80,24v432c0,13.255,10.745,24,24,24h272c13.255,0,24-10.745,24-24V24
			C400,10.745,389.255,0,376,0z M128,16h224v96H128V16z M240,240c-22.091,0-40-17.909-40-40s17.909-40,40-40
			c22.08,0.026,39.974,17.92,40,40C280,222.091,262.091,240,240,240z M282.768,236.064c6.743,7.949,11.127,17.626,12.656,27.936
			H279.2c-1.358-6.355-4.269-12.275-8.472-17.232C275.235,243.798,279.291,240.193,282.768,236.064z M209.28,246.768
			c-4.206,4.956-7.119,10.876-8.48,17.232h-16.224c1.529-10.31,5.913-19.987,12.656-27.936
			C200.712,240.193,204.77,243.798,209.28,246.768z M188,144l-12-16h128l-12,16H188z M384,456c0,4.418-3.582,8-8,8H104
			c-4.418,0-8-3.582-8-8v-16h288V456z M384,424H96v-16h176h112V424z M265.76,328h52.48l-12.8,64h-26.888L265.76,328z M384,392
			h-62.24l14.08-70.4c0.884-4.329-1.909-8.555-6.238-9.438C329.075,312.054,328.538,312,328,312h-72
			c-4.418-0.001-8.001,3.58-8.002,7.998c0,0.538,0.054,1.075,0.162,1.602l14.08,70.4H96V24c0-4.418,3.582-8,8-8h8v104
			c0,4.418,3.582,8,8,8h36l21.6,28.8c1.511,2.014,3.882,3.2,6.4,3.2h16.888c-16.522,16.085-21.458,40.672-12.424,61.888
			C175.372,235.286,168.029,253.267,168,272c0,4.418,3.582,8,8,8h32c4.418,0,8-3.582,8-8c0.052-7.059,3.26-13.724,8.744-18.168
			c9.965,2.891,20.547,2.891,30.512,0c5.484,4.444,8.692,11.109,8.744,18.168c0,4.418,3.582,8,8,8h32c4.418,0,8-3.582,8-8
			c-0.029-18.733-7.372-36.714-20.464-50.112c9.034-21.216,4.098-45.803-12.424-61.888H296c2.518,0,4.889-1.186,6.4-3.2L324,128h36
			c4.418,0,8-3.582,8-8V16h8c4.418,0,8,3.582,8,8V392z"/>
	</g>
</g>
<g>
	<g>
		<rect x="192" y="40" width="96" height="16"/>
	</g>
</g>
<g>
	<g>
		<rect x="200" y="72" width="16" height="16"/>
	</g>
</g>
<g>
	<g>
		<rect x="232" y="72" width="16" height="16"/>
	</g>
</g>
<g>
	<g>
		<rect x="264" y="72" width="16" height="16"/>
	</g>
</g>
<g>
</g>
<g>
</g>
<g>
</g>
<g>
</g>
<g>
</g>
<g>
</g>
<g>
</g>
<g>
</g>
<g>
</g>
<g>
</g>
<g>
</g>
<g>
</g>
<g>
</g>
<g>
</g>
<g>
</g>
</svg>
