<?xml version="1.0" encoding="iso-8859-1"?>
<!-- Generator: Adobe Illustrator 19.0.0, SVG Export Plug-In . SVG Version: 6.00 Build 0)  -->
<svg version="1.1" id="Capa_1" xmlns="http://www.w3.org/2000/svg" xmlns:xlink="http://www.w3.org/1999/xlink" x="0px" y="0px"
	 viewBox="0 0 480.014 480.014" style="enable-background:new 0 0 480.014 480.014;" xml:space="preserve">
<g>
	<g>
		<path fill="#88a896" d="M374.482,350.134l-34.4-64.472c6.909-4.043,9.698-12.618,6.488-19.952l-11.6-27.096l22.072,8.8l5.936-14.864
			l-18.272-7.304l33.496-9.6l-4.384-15.376l-39.832,11.376l12.592-29.384c3.232-7.438,0.334-16.117-6.72-20.12L383.21,75.59
			c1.975-3.952,0.372-8.757-3.58-10.732c-1.124-0.562-2.364-0.851-3.62-0.844h-17.304l24.552-52.616
			c1.868-4.004,0.137-8.764-3.867-10.632c-1.346-0.628-2.841-0.869-4.317-0.696l-136,16l0.088,0.8l-134.16-16.8
			c-2.854-0.383-5.688,0.823-7.392,3.144c-1.722,2.308-2.07,5.364-0.912,8l23.08,52.8H104.01c-4.418-0.002-8.002,3.578-8.004,7.996
			c-0.001,1.243,0.288,2.468,0.844,3.58l43.312,86.608c-7.054,4.003-9.952,12.682-6.72,20.12l17.864,41.696l-17.864,41.696
			c-3.21,7.334-0.421,15.909,6.488,19.952l-34.4,64.472c-16.693,31.14-16.361,68.641,0.88,99.48l14.616,26.312
			c1.416,2.526,4.088,4.09,6.984,4.088h224c2.906-0.002,5.583-1.579,6.992-4.12l14.608-26.28
			C390.846,418.772,391.175,381.273,374.482,350.134z M362.69,17.614l-6.464,13.84l-53.92-6.736L362.69,17.614z M116.978,17.694
			l232.144,29.024l-8.072,17.296H137.242L116.978,17.694z M116.954,80.014h9.824l25.904,59.2l14.656-6.4l-23.096-52.8H333.61
			l-20.8,44.616l14.496,6.768l23.904-51.384h11.824l-40,80h-166.08L116.954,80.014z M148.146,176.014h183.728l-17.136,40H165.282
			L148.146,176.014z M165.282,232.014h149.456l17.168,40h-183.76L165.282,232.014z M359.634,441.814l-12.336,22.2H132.722
			l-12.336-22.2c-14.573-26.09-14.844-57.808-0.72-84.144l37.144-69.656h166.4l37.152,69.656
			C374.48,384.008,374.205,415.724,359.634,441.814z"/>
	</g>
</g>
<g>
	<g>
		<rect fill="#f6954c" x="128.01" y="408.014" width="224" height="16"/>
	</g>
</g>
<g>
</g>
<g>
</g>
<g>
</g>
<g>
</g>
<g>
</g>
<g>
</g>
<g>
</g>
<g>
</g>
<g>
</g>
<g>
</g>
<g>
</g>
<g>
</g>
<g>
</g>
<g>
</g>
<g>
</g>
</svg>
