<?xml version="1.0" encoding="iso-8859-1"?>
<!-- Generator: Adobe Illustrator 19.0.0, SVG Export Plug-In . SVG Version: 6.00 Build 0)  -->
<svg version="1.1" id="Capa_1" xmlns="http://www.w3.org/2000/svg" xmlns:xlink="http://www.w3.org/1999/xlink" x="0px" y="0px"
	 viewBox="0 0 480.128 480.128" style="enable-background:new 0 0 480.128 480.128;" xml:space="preserve">
<g>
	<g>
		<path fill="#88a896" d="M340.065,200.128h-24v-24h8c4.418,0,8-3.582,8-8v-16c-0.048-10.298-6.66-19.417-16.432-22.664
			c-3.396-28.124-27.24-49.294-55.568-49.336h-32V62.992c17.112-4.418,27.402-21.872,22.984-38.984S229.177-3.394,212.065,1.024
			s-27.402,21.872-22.984,38.984c2.91,11.272,11.712,20.074,22.984,22.984v17.136h-32c-28.328,0.042-52.172,21.212-55.568,49.336
			c-9.772,3.247-16.384,12.366-16.432,22.664v8h-8c-4.418-0.002-8.001,3.579-8.003,7.997c-0.001,1.819,0.618,3.583,1.755,5.003
			l30.248,37.808v269.192h16v-16h56v8c0,4.418,3.582,8,8,8h32c4.418,0,8-3.582,8-8v-8h56v16h16v-80h24
			c26.499-0.026,47.974-21.501,48-48v-104C388.039,221.629,366.564,200.154,340.065,200.128z M204.065,32.128
			c0-8.837,7.163-16,16-16s16,7.163,16,16s-7.163,16-16,16S204.065,40.964,204.065,32.128z M180.065,96.128h80
			c19.002,0.021,35.375,13.387,39.2,32h-158.4C144.69,109.515,161.063,96.148,180.065,96.128z M196.065,448.128h-56v-136h56V448.128
			z M196.065,296.128h-56v-48h56V296.128z M300.065,448.128h-56v-136h56V448.128z M300.065,296.128h-56v-48h56V296.128z
			 M300.065,232.128h-64c-4.418,0-8,3.582-8,8v224h-16v-224c0-4.418-3.582-8-8-8h-64v-16h160V232.128z M300.065,200.128h-164.16
			l-19.2-24h183.36V200.128z M124.065,160.128v-8c0-4.418,3.582-8,8-8h176c4.418,0,8,3.582,8,8v8H124.065z M316.065,248.128h16
			c4.418,0,8,3.582,8,8v88c0,4.418-3.582,8-8,8h-16V248.128z M372.065,352.128c0,17.673-14.327,32-32,32h-24v-16h16
			c13.255,0,24-10.745,24-24v-88c0-13.255-10.745-24-24-24h-16v-16h24c17.673,0,32,14.327,32,32V352.128z"/>
	</g>
</g>
<g>
</g>
<g>
</g>
<g>
</g>
<g>
</g>
<g>
</g>
<g>
</g>
<g>
</g>
<g>
</g>
<g>
</g>
<g>
</g>
<g>
</g>
<g>
</g>
<g>
</g>
<g>
</g>
<g>
</g>
</svg>
