<?xml version="1.0" encoding="iso-8859-1"?>
<!-- Generator: Adobe Illustrator 19.0.0, SVG Export Plug-In . SVG Version: 6.00 Build 0)  -->
<svg version="1.1" id="Capa_1" xmlns="http://www.w3.org/2000/svg" xmlns:xlink="http://www.w3.org/1999/xlink" x="0px" y="0px"
	 viewBox="0 0 480 480" style="enable-background:new 0 0 480 480;" xml:space="preserve">
<g>
	<g>
		<path fill="#f6954c" d="M412,288h-24v-16c0-4.418-3.582-8-8-8h-64v-8h-16v8h-16v-24h-16v24h-48c-4.418,0-8,3.582-8,8v160h-88V128h8v16
			c0,4.418,3.582,8,8,8h32c4.418,0,8-3.582,8-8v-16h40.928l31.52,90.624c1.117,3.217,4.147,5.374,7.552,5.376h80
			c3.405-0.002,6.435-2.159,7.552-5.376L379.072,128H420c4.418,0,8-3.582,8-8V88c0-4.418-3.582-8-8-8h-24.224l15.776-45.376
			c1.449-4.174-0.76-8.732-4.933-10.181C405.777,24.15,404.891,24.001,404,24h-15.056l6.256-12.424
			c1.975-3.952,0.372-8.757-3.58-10.732C390.496,0.282,389.256-0.007,388,0H212c-4.418,0-8,3.583-7.999,8.001
			c0,1.083,0.22,2.155,0.647,3.151L210.16,24H196c-4.418,0.003-7.998,3.587-7.995,8.005c0.001,0.891,0.15,1.776,0.443,2.619
			L204.224,80H180V64c0-4.418-3.582-8-8-8h-32c-4.418,0-8,3.582-8,8v16h-8V24c0-4.418-3.582-8-8-8H84c-4.418,0-8,3.582-8,8v56H60
			c-4.418,0-8,3.582-8,8v32c0,4.418,3.582,8,8,8h16v304H52c-4.418,0-8,3.582-8,8v32c0,4.418,3.582,8,8,8h368c4.418,0,8-3.582,8-8
			v-32c0-4.418-3.582-8-8-8h-32v-16h24c13.255,0,24-10.745,24-24v-80C436,298.745,425.255,288,412,288z M334.312,208h-68.624
			l-27.832-80h16.6l22.048,58.816l14.992-5.6L271.544,128h90.6L334.312,208z M375.056,16l-4,8H227.56l-3.424-8H375.056z M217.016,40
			l11.632,27.152l14.704-6.304L234.4,40h28.64l13.76,27.576l14.32-7.152L280.944,40h82.112l-6.216,12.424l14.32,7.152L380.944,40
			h11.8L378.84,80H221.16l-13.904-40H217.016z M180,96h232v16H180V96z M148,72h16v64h-16V72z M228,280h40v16h16v-16h16v32h16v-32h56
			v88H228V280z M228,384h144v48H228V384z M92,32h16v48H92V32z M68,112V96h64v16H68z M108,128v304H92V128H108z M412,448v16H60v-16
			H412z M420,392c0,4.418-3.582,8-8,8h-24v-96h24c4.418,0,8,3.582,8,8V392z"/>
	</g>
</g>
<g>
	<g>
		<rect fill="#88a896" x="324" y="232" width="16" height="16"/>
	</g>
</g>
<g>
</g>
<g>
</g>
<g>
</g>
<g>
</g>
<g>
</g>
<g>
</g>
<g>
</g>
<g>
</g>
<g>
</g>
<g>
</g>
<g>
</g>
<g>
</g>
<g>
</g>
<g>
</g>
<g>
</g>
</svg>
