<?xml version="1.0" encoding="iso-8859-1"?>
<!-- Generator: Adobe Illustrator 19.0.0, SVG Export Plug-In . SVG Version: 6.00 Build 0)  -->
<svg version="1.1" id="Capa_1" xmlns="http://www.w3.org/2000/svg" xmlns:xlink="http://www.w3.org/1999/xlink" x="0px" y="0px"
	 viewBox="0 0 428.809 428.809" style="enable-background:new 0 0 428.809 428.809;" xml:space="preserve">
<g>
	<g>
		<path d="M384.487,70.546c-1.226-0.094-2.456-0.141-3.685-0.141h-40.8l-4-48.664c-0.346-4.157-3.829-7.35-8-7.336h-320
			C3.584,14.404,0.001,17.985,0,22.403c0,0.343,0.022,0.686,0.066,1.026L29.37,250.501c1.222,9.016,6.219,17.087,13.744,22.2
			l-7.472,89.704c-2.209,26.417,17.416,49.624,43.833,51.833c1.33,0.111,2.664,0.167,3.999,0.167H316.53
			c26.47,0.018,47.942-21.426,47.96-47.896c0-0.035,0-0.069,0-0.104h21.288c16.762-0.094,30.646-13.038,31.912-29.752
			l10.976-214.568C430.698,95.653,410.919,72.578,384.487,70.546z M45.178,248.005l-28.08-217.6h46.208L45.178,248.005z
			 M340.074,388.069c-6.029,6.625-14.586,10.382-23.544,10.336H83.474c-17.673-0.001-31.999-14.328-31.998-32.002
			c0-0.886,0.037-1.772,0.11-2.654L79.362,30.405h241.28l27.776,333.344C349.205,372.671,346.173,381.509,340.074,388.069z
			 M412.69,121.061l-10.96,214.568c-0.677,8.319-7.606,14.737-15.952,14.776h-22.4l-22.016-264h39.44
			c17.673,0.001,31.999,14.328,31.998,32.002C412.8,119.292,412.763,120.178,412.69,121.061z"/>
	</g>
</g>
<g>
	<g>
		<rect x="291.362" y="61.887" transform="matrix(0.9965 -0.083 0.083 0.9965 -16.6344 25.5968)" width="16" height="301.721"/>
	</g>
</g>
<g>
</g>
<g>
</g>
<g>
</g>
<g>
</g>
<g>
</g>
<g>
</g>
<g>
</g>
<g>
</g>
<g>
</g>
<g>
</g>
<g>
</g>
<g>
</g>
<g>
</g>
<g>
</g>
<g>
</g>
</svg>
