<?xml version="1.0" encoding="iso-8859-1"?>
<!-- Generator: Adobe Illustrator 19.0.0, SVG Export Plug-In . SVG Version: 6.00 Build 0)  -->
<svg version="1.1" id="Capa_1" xmlns="http://www.w3.org/2000/svg" xmlns:xlink="http://www.w3.org/1999/xlink" x="0px" y="0px"
	 viewBox="0 0 480 480" style="enable-background:new 0 0 480 480;" xml:space="preserve">
<g>
	<g>
		<path d="M188.352,233.505l0.088-0.12L144,203.761v-2.12c0-30.4,11.512-61.32,34.208-91.832c4.277-6.419,6.313-14.072,5.792-21.768
			c0.057-22.124-10.113-43.033-27.552-56.648C125.241,6.806,80.011,12.173,55.424,43.38C45.229,56.321,39.784,72.368,40,88.841
			c-0.569,8.385,2.148,16.663,7.576,23.08c20.8,22.048,32.232,54.664,32.392,91.872l-44.408,29.6l0.088,0.12
			c-2.24,1.421-3.612,3.876-3.648,6.528v32c0,4.418,3.582,8,8,8h144c4.418,0,8-3.582,8-8v-32
			C191.967,237.385,190.594,234.927,188.352,233.505z M59.2,100.937c-0.752-0.824-3.104-3.296-3.2-12.288
			c-0.353-25.733,16.905-48.383,41.808-54.872c16.954-4.316,34.951-0.551,48.752,10.2c13.569,10.588,21.483,26.853,21.44,44.064
			c0.385,4.234-0.531,8.484-2.624,12.184c-24.416,32.824-36.984,66.4-37.376,99.816H95.952
			C96.318,163.608,83.232,128.321,59.2,100.937z M176,264.041H48v-16h40v-16H66.4l24-16h43.2l24,16H128v16h48V264.041z"/>
	</g>
</g>
<g>
	<g>
		<path d="M464,288.041H288c-8.837,0-16,7.163-16,16h-50.224c-2.835-4.934-8.085-7.983-13.776-8H16c-8.837,0-16,7.163-16,16v32
			c0.036,7.962,5.921,14.685,13.808,15.776L80,389.241v42.8c0,17.673,14.327,32,32,32s32-14.327,32-32v-42.8l66.192-29.424
			c4.852-0.673,9.124-3.541,11.584-7.776H272c0,8.837,7.163,16,16,16h176c8.837,0,16-7.163,16-16v-48
			C480,295.204,472.837,288.041,464,288.041z M128,432.041c0,8.837-7.163,16-16,16s-16-7.163-16-16v-40h8v40h16v-40h8V432.041z
			 M134.304,376.041H89.696l-36-16h116.608L134.304,376.041z M208,344.041H16v-32h192V344.041z M272,336.041h-48v-16h48V336.041z
			 M464,352.041H288v-48h176V352.041z"/>
	</g>
</g>
<g>
</g>
<g>
</g>
<g>
</g>
<g>
</g>
<g>
</g>
<g>
</g>
<g>
</g>
<g>
</g>
<g>
</g>
<g>
</g>
<g>
</g>
<g>
</g>
<g>
</g>
<g>
</g>
<g>
</g>
</svg>
