<?xml version="1.0" encoding="iso-8859-1"?>
<!-- Generator: Adobe Illustrator 19.0.0, SVG Export Plug-In . SVG Version: 6.00 Build 0)  -->
<svg version="1.1" id="Capa_1" xmlns="http://www.w3.org/2000/svg" xmlns:xlink="http://www.w3.org/1999/xlink" x="0px" y="0px"
	 viewBox="0 0 477.632 477.632" style="enable-background:new 0 0 477.632 477.632;" xml:space="preserve">
<g>
	<g>
		<path fill="#a63519" d="M434.528,173.872l-14.264,144.456c-4.656,45.008-24.04,54.616-40.592,56.2c-1.398-6.408-3.577-12.619-6.488-18.496
			l-7.552-15.104v-13.112c-0.014-12.42-2.906-24.669-8.448-35.784l-7.552-15.104v-13.112c-0.014-12.42-2.906-24.669-8.448-35.784
			l-7.072-14.152l0.8-3.288c4.628-18.534,2.48-38.111-6.056-55.2l-3.224-6.464v-30.112c0-4.418-3.582-8-8-8h-56.208
			c5.294-6.883,8.179-15.316,8.208-24v-16c0-4.418-3.582-8-8-8h-64c-4.418,0-8,3.582-8,8v16c0.029,8.684,2.914,17.117,8.208,24
			h-56.208c-4.418,0-8,3.582-8,8v30.112l-3.248,6.488c-3.061,6.152-5.317,12.672-6.712,19.4h-6.04v-16c0-4.418-3.582-8-8-8H92.248
			c-3.253-9.54-12.201-15.966-22.28-16H43.232c-11.763,0.045-21.727,8.682-23.44,20.32L0.272,291.8
			c-1.965,12.925,6.919,24.996,19.844,26.962c12.925,1.965,24.996-6.919,26.962-19.844c0.05-0.331,0.094-0.664,0.13-0.997
			l12.744-108.328c0.451-3.864,3.725-6.778,7.616-6.776h2.4c10.08-0.034,19.027-6.46,22.28-16h9.384v16c0,4.418,3.582,8,8,8h12.36
			c-0.047,6.664,0.737,13.307,2.336,19.776l0.8,3.288l-7.072,14.152c-5.534,11.117-8.417,23.365-8.424,35.784v13.112l-7.552,15.104
			c-5.542,11.115-8.434,23.364-8.448,35.784v13.112l-7.552,15.104c-5.542,11.115-8.434,23.364-8.448,35.784v15c0,4.418,3.582,8,8,8
			h288c4.418,0,8-3.582,8-8v-15c0-0.488-0.08-0.976-0.088-1.464c23.44-2.584,49.192-17.832,54.632-70.4l14.256-144.504
			c1.329-14.011,13.126-24.695,27.2-24.632v-16C455.339,134.763,436.667,151.682,434.528,173.872z M77.632,159.144
			c-0.004,4.232-3.432,7.663-7.664,7.672h-2.4c-12.009-0.01-22.124,8.97-23.536,20.896L31.312,296.04
			c-0.451,3.864-3.725,6.778-7.616,6.776c-4.233,0.003-7.667-3.426-7.67-7.658c0-0.366,0.026-0.731,0.078-1.094L35.632,157.4
			c0.554-3.773,3.786-6.573,7.6-6.584h26.744c4.232,0.009,7.66,3.44,7.664,7.672L77.632,159.144z M205.632,78.816h48v8
			c0,13.255-10.745,24-24,24s-24-10.745-24-24V78.816z M149.632,126.816h160v16h-160V126.816z M144.696,162.576l1.88-3.76h166.112
			l1.88,3.76c6.828,13.663,8.545,29.318,4.84,44.136l-179.528,0.104l-0.024-0.104C136.151,191.894,137.868,176.239,144.696,162.576z
			 M125.632,263.816c0.011-9.936,2.325-19.733,6.76-28.624l6.184-12.376h182.112l6.184,12.376c4.435,8.891,6.749,18.689,6.76,28.624
			v7h-208V263.816z M109.632,327.816c0.011-9.935,2.325-19.733,6.76-28.624l6.184-12.376h214.112l6.184,12.376
			c4.435,8.891,6.749,18.689,6.76,28.624v7h-240V327.816z M365.632,398.816h-272v-7c0.011-9.935,2.325-19.733,6.76-28.624
			l6.184-12.376h246.112l6.184,12.376c4.435,8.891,6.749,18.689,6.76,28.624V398.816z"/>
	</g>
</g>
<g>
</g>
<g>
</g>
<g>
</g>
<g>
</g>
<g>
</g>
<g>
</g>
<g>
</g>
<g>
</g>
<g>
</g>
<g>
</g>
<g>
</g>
<g>
</g>
<g>
</g>
<g>
</g>
<g>
</g>
</svg>
