<?xml version="1.0" encoding="iso-8859-1"?>
<!-- Generator: Adobe Illustrator 19.0.0, SVG Export Plug-In . SVG Version: 6.00 Build 0)  -->
<svg version="1.1" id="Capa_1" xmlns="http://www.w3.org/2000/svg" xmlns:xlink="http://www.w3.org/1999/xlink" x="0px" y="0px"
	 viewBox="0 0 480 480" style="enable-background:new 0 0 480 480;" xml:space="preserve">
<g>
	<g>
		<path fill="#88a896" d="M404,64V46.528c12.473-4.393,19.023-18.066,14.629-30.539C415.249,6.393,406.174-0.019,396,0h-32
			c-13.224-0.025-23.964,10.675-23.989,23.899c-0.019,10.174,6.393,19.249,15.989,22.629V64h-80c-2.122,0-4.156,0.844-5.656,2.344
			L240.688,96H220v-9.472c12.497-4.418,19.046-18.131,14.627-30.627S216.497,36.855,204,41.273
			c-12.497,4.418-19.046,18.131-14.627,30.627c2.416,6.835,7.793,12.211,14.627,14.627V96h-16v16h16v8H92c-4.418,0-8,3.582-8,8v32
			c0,4.418,3.582,8,8,8h9.232c2.917,20.664,11.626,40.08,25.12,56H108c-4.418,0-8,3.582-8,8v24H68c-4.418,0-8,3.582-8,8v32
			c0,4.418,3.582,8,8,8h16v128H68c-4.418,0-8,3.582-8,8v32c0,4.418,3.582,8,8,8h288c4.418,0,8-3.582,8-8v-32c0-4.418-3.582-8-8-8
			h-16V304h16c4.418,0,8-3.582,8-8v-32c0-4.418-3.582-8-8-8h-32v-24c0-4.418-3.582-8-8-8h-18.352
			c13.494-15.92,22.203-35.336,25.12-56H332c4.418,0,8-3.582,8-8v-32c0-4.418-3.582-8-8-8H220v-8h24
			c2.122,0,4.156-0.844,5.656-2.344L279.312,80H372v16h16V80h32V64H404z M348,448v16H76v-16H348z M100,432V304h224v128H100z
			 M348,272v16H76v-16H348z M324,136v16h-8.408c-4.191-0.012-7.682,3.213-8,7.392c-1.935,25.931-14.393,49.943-34.48,66.456
			c-3.398,2.824-3.862,7.868-1.038,11.266c1.523,1.832,3.783,2.89,6.166,2.886H308v16H116v-16h29.76
			c4.418-0.005,7.996-3.592,7.99-8.01c-0.003-2.374-1.06-4.624-2.886-6.142c-20.087-16.513-32.545-40.525-34.48-66.456
			c-0.319-4.179-3.809-7.404-8-7.392H100v-16H324z M212,72c-4.418,0-8-3.582-8-8s3.582-8,8-8s8,3.582,8,8S216.418,72,212,72z
			 M388,64h-16V48h16V64z M396,32h-32c-4.418,0-8-3.582-8-8s3.582-8,8-8h32c4.418,0,8,3.582,8,8S400.418,32,396,32z"/>
	</g>
</g>
<g>
	<g>
		<rect fill="#a63519" x="164" y="320" width="96" height="16"/>
	</g>
</g>
<g>
	<g>
		<path fill="#a63519" d="M300,352H124c-4.418,0-8,3.582-8,8v48c0,4.418,3.582,8,8,8h176c4.418,0,8-3.582,8-8v-48C308,355.582,304.418,352,300,352z
			 M292,400H132v-32h160V400z"/>
	</g>
</g>
<g>
	<g>
		<rect fill="#88a896" x="204" y="376" width="16" height="16"/>
	</g>
</g>
<g>
</g>
<g>
</g>
<g>
</g>
<g>
</g>
<g>
</g>
<g>
</g>
<g>
</g>
<g>
</g>
<g>
</g>
<g>
</g>
<g>
</g>
<g>
</g>
<g>
</g>
<g>
</g>
<g>
</g>
</svg>
